if (_typeface_js && _typeface_js.loadFace) _typeface_js.loadFace({"glyphs":{"S":{"x_min":29.171875,"x_max":1102.78125,"ha":1139,"o":"m 1102 379 q 977 123 1102 230 q 602 4 837 4 q 446 18 526 4 q 294 60 366 33 q 165 141 231 83 q 76 297 76 220 q 109 357 76 334 q 205 380 143 380 q 306 363 243 380 q 419 347 370 347 l 445 347 q 486 354 472 347 q 500 383 500 361 q 370 427 500 419 q 197 451 240 434 q 62 576 108 484 q 29 704 29 643 q 181 1002 29 883 q 522 1114 325 1114 q 694 1097 590 1114 q 862 1051 798 1080 q 995 963 937 1016 q 1079 813 1079 887 q 1040 745 1079 770 q 947 720 1001 720 q 841 741 913 720 q 694 784 769 762 q 663 773 673 777 q 633 743 633 758 q 725 688 633 704 q 930 638 869 665 q 1054 535 1005 606 q 1102 379 1102 463 "},"K":{"x_min":29.5625,"x_max":1260.109375,"ha":1294,"o":"m 1260 900 q 1200 739 1260 819 q 1067 567 1133 653 q 1186 422 1135 506 q 1243 225 1243 329 q 1192 58 1243 116 q 1036 1 1142 1 q 814 73 919 1 q 621 231 717 152 q 571 161 608 231 q 504 75 544 111 q 446 31 474 47 q 337 6 397 6 q 114 155 193 6 q 29 586 29 313 q 90 923 29 788 q 321 1093 167 1093 q 493 1025 403 1093 q 578 905 524 1001 q 611 869 599 869 q 814 1030 708 961 q 1025 1107 930 1107 q 1200 1043 1130 1107 q 1260 900 1260 987 "},"7":{"x_min":27.78125,"x_max":1081.953125,"ha":1111,"o":"m 1081 733 q 1038 532 1081 640 q 883 282 987 402 q 640 73 773 154 q 431 -1 515 -1 q 302 44 351 -1 q 254 164 254 90 q 351 373 254 257 q 483 544 473 519 q 180 597 297 544 q 27 813 27 666 q 186 1000 27 929 q 581 1072 345 1072 q 919 991 780 1072 q 1081 733 1081 897 "},"d":{"x_min":33.71875,"x_max":1282.328125,"ha":1311,"o":"m 1282 574 q 1249 358 1282 441 q 1105 170 1210 262 q 891 49 1018 94 q 633 4 764 4 q 412 29 568 4 q 174 98 219 59 q 87 219 121 142 q 33 542 33 344 l 33 692 q 65 904 33 812 q 200 1065 108 1029 q 351 1095 240 1080 q 594 1111 461 1111 q 1098 970 915 1111 q 1282 574 1282 829 m 708 591 q 689 663 708 633 q 630 700 667 700 q 571 667 591 700 q 552 590 552 634 q 591 494 552 529 q 631 471 603 483 q 683 514 659 471 q 708 591 708 557 "},",":{"x_min":27.78125,"x_max":351.390625,"ha":383,"o":"m 351 82 q 319 -46 351 24 q 216 -138 277 -138 q 154 -77 168 -138 q 129 -10 141 -17 q 75 15 86 7 q 27 106 27 50 q 61 179 27 146 q 183 224 105 224 q 306 186 262 224 q 351 82 351 149 "},"Y":{"x_min":31.9375,"x_max":1280.5625,"ha":1311,"o":"m 1280 868 q 1209 665 1280 793 q 995 402 1126 515 q 945 281 954 368 q 918 152 937 195 q 824 44 887 85 q 691 4 761 4 q 547 43 608 4 q 449 161 487 83 q 397 334 411 240 q 348 419 388 394 q 161 591 256 474 q 31 884 31 748 q 91 1043 31 983 q 248 1102 151 1102 q 355 1083 305 1102 q 455 1031 384 1072 q 591 930 544 980 q 661 863 654 863 q 751 951 670 863 q 845 1031 800 1004 q 944 1086 919 1075 q 1058 1110 998 1110 q 1216 1039 1152 1110 q 1280 868 1280 968 "},"E":{"x_min":33.328125,"x_max":1040.28125,"ha":1067,"o":"m 1040 195 q 919 41 1040 91 q 626 -3 812 -3 q 369 16 481 -3 q 152 106 208 44 q 64 288 95 169 q 33 587 33 408 q 54 830 33 719 q 141 1026 81 982 q 313 1096 213 1080 q 579 1106 380 1106 q 777 1100 723 1106 q 951 1053 891 1089 q 1026 920 1026 1008 q 954 774 1026 821 q 790 735 894 735 q 692 740 725 735 q 625 753 659 745 q 602 745 616 753 q 588 727 588 737 q 610 694 588 702 q 679 686 631 686 q 715 686 697 686 q 754 686 734 686 q 858 669 823 686 q 905 585 905 645 q 880 496 905 534 q 809 458 855 458 l 658 458 q 590 437 623 458 q 609 413 598 419 q 641 407 620 407 q 673 408 661 407 q 744 415 733 415 q 957 358 875 415 q 1040 195 1040 302 "},"y":{"x_min":31.9375,"x_max":1280.5625,"ha":1311,"o":"m 1280 868 q 1209 665 1280 793 q 995 402 1126 515 q 945 281 954 368 q 918 152 937 195 q 824 44 887 85 q 691 4 761 4 q 547 43 608 4 q 449 161 487 83 q 397 334 411 240 q 348 419 388 394 q 161 591 256 474 q 31 884 31 748 q 91 1043 31 983 q 248 1102 151 1102 q 355 1083 305 1102 q 455 1031 384 1072 q 591 930 544 980 q 661 863 654 863 q 751 951 670 863 q 845 1031 800 1004 q 944 1086 919 1075 q 1058 1110 998 1110 q 1216 1039 1152 1110 q 1280 868 1280 968 "},"\"":{"x_min":29.5625,"x_max":769.828125,"ha":806,"o":"m 769 1127 q 736 989 769 1055 q 629 909 694 909 q 561 964 568 909 q 536 1031 554 1020 q 463 1074 486 1051 q 432 1151 432 1108 q 476 1223 432 1187 q 603 1267 529 1267 q 718 1230 666 1267 q 769 1127 769 1193 m 369 1127 q 334 988 369 1053 q 227 909 292 909 q 159 966 173 909 q 133 1031 145 1024 q 82 1058 98 1045 q 29 1151 29 1097 q 72 1222 29 1186 q 202 1267 125 1267 q 312 1233 265 1267 q 369 1127 369 1193 "},"g":{"x_min":25,"x_max":1211.109375,"ha":1244,"o":"m 1211 381 q 1086 144 1211 257 q 690 6 933 6 q 448 46 575 6 q 162 219 266 104 q 25 609 25 372 q 69 775 25 680 q 261 998 134 913 q 684 1111 430 1111 q 969 1063 841 1111 q 1150 860 1150 997 q 1084 735 1150 777 q 945 701 1030 701 q 848 712 887 701 q 737 740 751 740 q 595 677 645 740 q 551 542 551 621 q 679 337 551 403 l 697 337 q 651 389 666 370 q 622 474 622 427 q 701 600 622 543 q 904 662 785 662 q 1097 603 1011 662 q 1211 381 1211 526 "},"e":{"x_min":33.328125,"x_max":1040.28125,"ha":1067,"o":"m 1040 195 q 919 41 1040 91 q 626 -3 812 -3 q 369 16 481 -3 q 152 106 208 44 q 64 288 95 169 q 33 587 33 408 q 54 830 33 719 q 141 1026 81 982 q 313 1096 213 1080 q 579 1106 380 1106 q 777 1100 723 1106 q 951 1053 891 1089 q 1026 920 1026 1008 q 954 774 1026 821 q 790 735 894 735 q 692 740 725 735 q 625 753 659 745 q 602 745 616 753 q 588 727 588 737 q 610 694 588 702 q 679 686 631 686 q 715 686 697 686 q 754 686 734 686 q 858 669 823 686 q 905 585 905 645 q 880 496 905 534 q 809 458 855 458 l 658 458 q 590 437 623 458 q 609 413 598 419 q 641 407 620 407 q 673 408 661 407 q 744 415 733 415 q 957 358 875 415 q 1040 195 1040 302 "},"J":{"x_min":25,"x_max":1177.78125,"ha":1206,"o":"m 1177 601 q 1140 370 1177 481 q 1075 230 1118 305 q 883 38 993 91 q 661 -6 791 -6 q 393 31 518 -6 q 138 177 233 78 q 25 474 25 295 q 86 677 25 581 q 261 787 156 787 q 398 738 334 787 q 476 650 447 702 q 518 499 505 598 q 559 434 526 434 q 585 446 575 434 q 595 487 595 459 q 595 494 595 491 q 594 501 595 498 q 583 619 594 514 q 577 721 577 671 q 651 983 577 874 q 869 1104 733 1104 q 1118 912 1036 1104 q 1177 601 1177 773 "},"q":{"x_min":31.9375,"x_max":1281.953125,"ha":1311,"o":"m 1281 526 q 1241 316 1281 395 q 1152 184 1197 249 q 1176 123 1166 157 q 1186 49 1186 88 q 1134 -87 1186 -31 q 994 -144 1081 -144 q 806 -70 876 -144 q 705 2 737 2 q 547 15 633 2 q 402 48 461 27 q 127 256 229 106 q 31 566 31 398 q 185 936 31 784 q 562 1108 338 1089 q 589 1109 575 1108 q 611 1111 604 1111 q 651 1111 623 1111 q 698 1111 679 1111 q 1080 970 909 1111 q 1281 526 1281 805 m 756 530 q 714 706 756 644 q 640 755 682 755 q 564 679 594 755 q 539 563 539 615 q 580 398 539 459 q 655 348 615 348 q 735 416 707 348 q 756 530 756 469 "},"b":{"x_min":32,"x_max":1238.953125,"ha":1267,"o":"m 1238 332 q 1026 79 1238 168 q 579 3 844 3 q 340 21 429 3 q 126 140 183 52 q 61 301 84 205 q 32 601 32 423 q 43 799 32 727 q 152 1035 69 972 q 308 1084 183 1059 q 598 1115 458 1115 q 809 1099 705 1115 q 1090 1015 982 1074 q 1232 812 1232 937 q 1165 663 1232 730 q 1098 577 1098 597 q 1193 469 1152 533 q 1238 332 1238 398 m 708 776 q 678 806 708 791 q 627 821 649 821 q 565 798 599 821 q 536 776 554 791 q 560 744 536 758 q 622 725 595 725 q 685 743 663 725 q 708 776 708 762 m 714 379 q 672 411 714 399 q 630 420 658 415 q 574 406 598 420 q 550 370 550 393 q 573 336 550 346 q 627 326 597 326 q 688 339 663 326 q 714 379 714 352 "},"D":{"x_min":33.71875,"x_max":1282.328125,"ha":1311,"o":"m 1282 574 q 1249 358 1282 441 q 1105 170 1210 262 q 891 49 1018 94 q 633 4 764 4 q 412 29 568 4 q 174 98 219 59 q 87 219 121 142 q 33 542 33 344 l 33 692 q 65 904 33 812 q 200 1065 108 1029 q 351 1095 240 1080 q 594 1111 461 1111 q 1098 970 915 1111 q 1282 574 1282 829 m 708 591 q 689 663 708 633 q 630 700 667 700 q 571 667 591 700 q 552 590 552 634 q 591 494 552 529 q 631 471 603 483 q 683 514 659 471 q 708 591 708 557 "},"z":{"x_min":27.78125,"x_max":1177.78125,"ha":1206,"o":"m 1177 226 q 1019 50 1177 108 q 652 -1 880 -1 q 395 12 497 -1 q 155 86 241 33 q 50 264 50 151 q 172 474 50 369 q 355 614 263 543 q 122 701 209 647 q 27 847 27 760 q 172 1021 27 949 q 587 1099 329 1099 q 819 1080 709 1099 q 1051 1004 968 1055 q 1155 833 1155 939 q 1068 653 1155 749 q 877 462 972 557 q 911 437 877 444 q 1056 386 981 422 q 1140 324 1108 361 q 1177 226 1177 279 "},"w":{"x_min":44.4375,"x_max":1825,"ha":1861,"o":"m 1825 826 q 1777 618 1825 769 q 1659 344 1723 444 q 1508 123 1541 161 q 1288 -1 1400 -1 q 1029 122 1151 -1 q 881 300 916 263 q 816 90 868 170 q 648 2 761 2 q 416 104 529 2 q 227 338 333 179 q 113 543 159 438 q 44 823 44 700 q 116 1036 44 962 q 277 1100 179 1100 q 461 1017 354 1100 q 666 784 569 934 l 684 784 q 758 1050 684 970 q 912 1110 813 1110 q 1004 1089 944 1110 q 1113 1026 1077 1062 q 1218 913 1194 945 q 1262 838 1240 876 q 1406 1020 1325 948 q 1595 1100 1497 1100 q 1763 1015 1698 1100 q 1825 826 1825 936 "},"-":{"x_min":31.9375,"x_max":869.453125,"ha":906,"o":"m 869 567 q 697 350 869 406 q 404 320 602 320 q 137 378 233 320 q 31 567 31 442 q 162 762 31 698 q 433 814 266 814 l 562 814 q 775 743 680 814 q 869 567 869 673 "},"Q":{"x_min":31.9375,"x_max":1281.953125,"ha":1311,"o":"m 1281 526 q 1241 316 1281 395 q 1152 184 1197 249 q 1176 123 1166 157 q 1186 49 1186 88 q 1134 -87 1186 -31 q 994 -144 1081 -144 q 806 -70 876 -144 q 705 2 737 2 q 547 15 633 2 q 402 48 461 27 q 127 256 229 106 q 31 566 31 398 q 185 936 31 784 q 562 1108 338 1089 q 589 1109 575 1108 q 611 1111 604 1111 q 651 1111 623 1111 q 698 1111 679 1111 q 1080 970 909 1111 q 1281 526 1281 805 m 756 530 q 714 706 756 644 q 640 755 682 755 q 564 679 594 755 q 539 563 539 615 q 580 398 539 459 q 655 348 615 348 q 735 416 707 348 q 756 530 756 469 "},"M":{"x_min":27.78125,"x_max":1458.328125,"ha":1489,"o":"m 1455 545 q 1452 425 1455 503 q 1450 334 1450 346 q 1365 105 1450 209 q 1183 1 1280 1 q 1077 23 1127 1 q 1004 75 1026 46 q 940 179 968 126 q 895 243 906 243 q 848 176 887 243 q 740 110 809 110 q 652 149 683 110 q 591 231 620 189 q 512 75 551 153 q 354 6 466 6 q 180 84 255 6 q 79 264 112 154 q 37 440 45 374 q 29 591 29 505 l 29 651 q 28 692 29 672 q 27 732 27 713 q 27 754 27 743 q 30 782 30 772 q 126 1018 45 919 q 311 1117 206 1117 q 476 1062 381 1117 q 620 952 555 1017 q 662 903 637 937 q 723 852 701 852 q 801 929 736 852 q 912 1032 847 982 q 997 1085 959 1066 q 1127 1117 1063 1117 q 1388 926 1298 1117 q 1458 597 1458 781 q 1458 563 1458 579 q 1455 545 1455 550 "},"C":{"x_min":29.5625,"x_max":1179.5625,"ha":1211,"o":"m 1179 321 q 1030 94 1179 191 q 664 -3 882 -3 q 422 42 547 -3 q 155 224 255 103 q 29 608 29 377 q 85 803 29 699 q 276 1008 153 930 q 640 1104 429 1104 q 865 1076 751 1104 q 1029 1009 962 1052 q 1121 920 1072 981 q 1179 795 1179 847 q 1124 677 1179 727 q 960 622 1062 622 q 855 640 912 622 q 683 683 721 683 q 591 646 633 683 q 549 567 549 610 q 593 480 549 517 q 715 444 637 444 q 821 463 767 444 q 982 508 946 508 q 1128 444 1069 508 q 1179 321 1179 387 "},"[":{"x_min":27.78125,"x_max":775,"ha":806,"o":"m 775 1033 q 736 962 775 995 q 604 919 686 919 q 493 952 542 919 q 438 1056 438 991 q 476 1200 438 1134 q 587 1275 521 1275 q 643 1219 630 1275 q 679 1154 657 1163 q 747 1103 720 1134 q 775 1033 775 1072 m 369 1028 q 313 944 369 982 q 196 913 265 913 q 80 949 128 913 q 27 1050 27 989 q 61 1183 27 1116 q 169 1269 104 1269 q 239 1213 229 1269 q 267 1148 249 1158 q 332 1107 314 1123 q 369 1028 369 1073 "},"L":{"x_min":26.390625,"x_max":1123.609375,"ha":1150,"o":"m 1123 276 q 1009 80 1123 160 q 761 6 901 6 l 533 6 q 376 28 494 6 q 183 92 223 57 q 90 248 137 132 q 26 598 26 408 q 105 950 26 802 q 340 1114 194 1114 q 526 1026 429 1114 q 641 777 641 922 l 641 607 q 636 565 641 594 q 630 523 630 536 q 658 493 630 493 q 734 514 665 493 q 815 523 768 523 q 1029 451 934 523 q 1123 276 1123 378 "},"!":{"x_min":36.5,"x_max":512.890625,"ha":550,"o":"m 512 719 q 489 574 512 688 q 447 423 467 460 q 369 335 424 377 q 275 294 315 294 q 128 406 201 294 q 36 769 36 546 q 94 1002 36 906 q 275 1111 161 1111 q 462 988 401 1111 q 512 719 512 888 m 451 129 q 399 34 451 68 q 294 7 354 7 q 186 36 232 7 q 128 137 128 72 q 171 226 128 191 q 278 261 214 261 q 396 224 340 261 q 451 129 451 187 "}," ":{"x_min":0,"x_max":0,"ha":694},"X":{"x_min":29.171875,"x_max":1280.5625,"ha":1317,"o":"m 1280 197 q 1218 46 1280 97 q 1065 -1 1161 -1 q 861 50 955 -1 q 680 164 770 107 q 508 51 598 98 q 313 -1 409 -1 q 143 59 202 -1 q 84 216 84 119 q 163 425 84 332 q 243 543 243 518 q 184 597 243 552 q 97 691 141 630 q 50 789 70 727 q 29 891 29 851 q 105 1052 29 986 q 245 1111 172 1111 q 444 1051 352 1111 q 629 919 536 984 q 829 1053 733 995 q 1016 1117 936 1117 q 1190 1051 1123 1117 q 1258 879 1258 985 q 1209 717 1258 796 q 1102 568 1155 642 q 1223 400 1172 492 q 1280 197 1280 300 "},"P":{"x_min":30,"x_max":1174.4375,"ha":1206,"o":"m 1174 694 q 1053 436 1174 529 q 771 323 959 362 q 726 315 743 318 q 688 313 709 313 q 653 315 661 315 q 634 306 642 315 q 548 98 611 180 q 357 10 478 10 q 110 173 198 10 q 30 568 30 323 q 58 829 30 697 q 135 1011 86 961 q 290 1086 180 1055 q 560 1117 400 1117 q 975 1015 803 1117 q 1174 694 1174 898 m 641 689 l 641 724 q 609 735 627 727 q 571 743 591 743 q 518 726 545 743 q 491 702 491 710 q 497 684 497 691 q 552 671 527 678 q 562 669 556 671 q 598 675 575 669 q 641 689 621 682 "},"+":{"x_min":26.390625,"x_max":1093.0625,"ha":1122,"o":"m 1093 583 q 1077 477 1093 511 q 1013 397 1061 444 q 922 334 972 355 q 836 289 840 301 q 743 92 791 147 q 573 24 683 24 q 387 97 454 24 q 297 282 341 189 q 108 371 202 326 q 26 558 26 443 q 77 705 26 634 q 165 786 116 758 q 237 820 204 808 q 286 846 281 837 q 292 874 291 855 q 297 901 293 894 q 394 1038 334 991 q 548 1090 459 1090 q 694 1045 630 1090 q 777 952 744 1010 q 819 860 805 905 q 848 842 823 848 q 1015 761 951 819 q 1093 583 1093 691 "},"'":{"x_min":25,"x_max":365.28125,"ha":394,"o":"m 365 1126 q 331 988 365 1053 q 223 909 291 909 q 159 961 165 909 q 130 1026 152 1014 q 45 1088 65 1061 q 25 1150 25 1115 q 86 1229 25 1194 q 198 1264 147 1264 q 314 1225 263 1264 q 365 1126 365 1186 "},"T":{"x_min":25,"x_max":1125,"ha":1156,"o":"m 1125 821 q 1048 638 1125 701 q 887 541 943 579 l 887 412 q 816 136 887 252 q 602 4 736 4 q 393 133 470 4 q 309 406 331 236 q 300 486 301 461 q 297 530 298 512 q 108 641 184 573 q 25 822 25 716 q 197 1023 25 936 q 587 1110 369 1110 q 925 1044 766 1110 q 1125 821 1125 962 "},"a":{"x_min":33.71875,"x_max":1297.609375,"ha":1328,"o":"m 1297 279 q 1239 86 1297 158 q 1080 14 1180 14 q 975 38 1032 14 q 886 97 918 62 q 808 212 842 147 q 768 251 789 251 q 550 234 589 251 q 500 167 532 227 q 389 47 458 91 q 250 4 321 4 q 94 83 154 4 q 33 291 33 163 q 82 530 33 391 q 193 768 125 655 q 285 913 254 872 q 422 1043 347 998 q 635 1100 517 1100 q 880 1025 779 1100 q 1094 784 962 963 q 1228 544 1168 683 q 1297 279 1297 384 m 724 669 q 701 706 724 694 q 646 718 678 718 q 583 691 605 718 q 568 664 576 683 q 598 621 568 636 q 648 610 620 610 q 700 628 676 610 q 724 669 724 646 "},"=":{"x_min":38.890625,"x_max":741.671875,"ha":783,"o":"m 741 817 q 598 638 741 684 q 354 612 516 612 q 131 660 212 612 q 44 817 44 713 q 176 989 44 941 q 431 1023 268 1023 q 636 982 555 1023 q 741 817 741 929 m 736 350 q 608 176 736 223 q 348 144 522 144 q 133 189 213 144 q 38 350 38 244 q 170 522 38 473 q 426 556 261 556 q 653 504 570 556 q 736 350 736 453 "},"N":{"x_min":29.171875,"x_max":1326.390625,"ha":1356,"o":"m 1326 533 q 1263 190 1326 327 q 1018 14 1183 14 q 884 39 947 14 q 787 98 820 64 q 694 215 725 162 q 640 283 654 283 q 598 193 631 283 q 539 92 577 136 q 441 25 501 48 q 352 7 394 7 q 95 201 183 7 q 29 533 29 348 q 101 911 29 748 q 369 1119 194 1119 q 618 976 501 1119 q 706 856 683 886 q 787 991 738 924 q 994 1126 886 1126 q 1256 908 1166 1126 q 1326 533 1326 740 "},"2":{"x_min":29.5625,"x_max":1078.171875,"ha":1117,"o":"m 1078 240 q 560 7 1078 7 q 260 43 378 7 q 78 230 78 98 q 123 329 78 275 q 253 426 168 384 q 371 481 311 454 q 476 587 476 536 q 418 637 476 629 q 118 712 194 672 q 62 756 92 727 q 29 813 29 791 q 136 972 29 898 q 526 1068 275 1068 q 865 998 718 1068 q 1047 759 1047 912 q 960 543 1047 648 q 836 422 860 445 q 1013 351 949 391 q 1078 240 1078 311 "},"j":{"x_min":25,"x_max":1177.78125,"ha":1206,"o":"m 1177 601 q 1140 370 1177 481 q 1075 230 1118 305 q 883 38 993 91 q 661 -6 791 -6 q 393 31 518 -6 q 138 177 233 78 q 25 474 25 295 q 86 677 25 581 q 261 787 156 787 q 398 738 334 787 q 476 650 447 702 q 518 499 505 598 q 559 434 526 434 q 585 446 575 434 q 595 487 595 459 q 595 494 595 491 q 594 501 595 498 q 583 619 594 514 q 577 721 577 671 q 651 983 577 874 q 869 1104 733 1104 q 1118 912 1036 1104 q 1177 601 1177 773 "},"Z":{"x_min":27.78125,"x_max":1177.78125,"ha":1206,"o":"m 1177 226 q 1019 50 1177 108 q 652 -1 880 -1 q 395 12 497 -1 q 155 86 241 33 q 50 264 50 151 q 172 474 50 369 q 355 614 263 543 q 122 701 209 647 q 27 847 27 760 q 172 1021 27 949 q 587 1099 329 1099 q 819 1080 709 1099 q 1051 1004 968 1055 q 1155 833 1155 939 q 1068 653 1155 749 q 877 462 972 557 q 911 437 877 444 q 1056 386 981 422 q 1140 324 1108 361 q 1177 226 1177 279 "},"u":{"x_min":36.109375,"x_max":1340.28125,"ha":1372,"o":"m 1340 555 q 1168 141 1340 282 q 759 0 1022 22 q 697 -4 722 -4 q 633 0 670 -4 q 154 209 294 29 q 36 655 36 361 q 104 954 36 836 q 319 1086 180 1086 q 504 995 409 1086 q 616 734 616 887 l 616 602 q 635 552 616 581 q 677 523 654 523 q 741 569 730 523 q 758 836 740 716 q 858 1036 776 956 q 1015 1110 936 1110 q 1247 950 1154 1110 q 1340 555 1340 790 "},"1":{"x_min":26.390625,"x_max":623.609375,"ha":667,"o":"m 623 433 q 568 146 623 259 q 347 1 495 1 q 91 191 175 1 q 26 572 26 341 q 84 904 26 776 q 318 1068 159 1068 q 530 959 456 1068 q 609 709 588 874 q 623 433 623 601 "},"k":{"x_min":29.5625,"x_max":1260.109375,"ha":1294,"o":"m 1260 900 q 1200 739 1260 819 q 1067 567 1133 653 q 1186 422 1135 506 q 1243 225 1243 329 q 1192 58 1243 116 q 1036 1 1142 1 q 814 73 919 1 q 621 231 717 152 q 571 161 608 231 q 504 75 544 111 q 446 31 474 47 q 337 6 397 6 q 114 155 193 6 q 29 586 29 313 q 90 923 29 788 q 321 1093 167 1093 q 493 1025 403 1093 q 578 905 524 1001 q 611 869 599 869 q 814 1030 708 961 q 1025 1107 930 1107 q 1200 1043 1130 1107 q 1260 900 1260 987 "},"t":{"x_min":25,"x_max":1125,"ha":1156,"o":"m 1125 821 q 1048 638 1125 701 q 887 541 943 579 l 887 412 q 816 136 887 252 q 602 4 736 4 q 393 133 470 4 q 309 406 331 236 q 300 486 301 461 q 297 530 298 512 q 108 641 184 573 q 25 822 25 716 q 197 1023 25 936 q 587 1110 369 1110 q 925 1044 766 1110 q 1125 821 1125 962 "},"W":{"x_min":44.4375,"x_max":1825,"ha":1861,"o":"m 1825 826 q 1777 618 1825 769 q 1659 344 1723 444 q 1508 123 1541 161 q 1288 -1 1400 -1 q 1029 122 1151 -1 q 881 300 916 263 q 816 90 868 170 q 648 2 761 2 q 416 104 529 2 q 227 338 333 179 q 113 543 159 438 q 44 823 44 700 q 116 1036 44 962 q 277 1100 179 1100 q 461 1017 354 1100 q 666 784 569 934 l 684 784 q 758 1050 684 970 q 912 1110 813 1110 q 1004 1089 944 1110 q 1113 1026 1077 1062 q 1218 913 1194 945 q 1262 838 1240 876 q 1406 1020 1325 948 q 1595 1100 1497 1100 q 1763 1015 1698 1100 q 1825 826 1825 936 "},"v":{"x_min":36.5,"x_max":1260.109375,"ha":1294,"o":"m 1260 796 q 1221 568 1260 687 q 1074 289 1172 421 q 962 153 1004 197 q 828 43 894 79 q 654 -1 747 -1 q 487 44 567 -1 q 221 311 361 118 q 96 544 150 408 q 36 813 36 695 q 95 1019 36 938 q 258 1100 154 1100 q 462 1013 374 1100 q 579 844 526 952 q 637 719 608 781 q 794 997 712 891 q 1010 1110 882 1110 q 1200 1015 1133 1110 q 1260 796 1260 930 "},"s":{"x_min":29.171875,"x_max":1102.78125,"ha":1139,"o":"m 1102 379 q 977 123 1102 230 q 602 4 837 4 q 446 18 526 4 q 294 60 366 33 q 165 141 231 83 q 76 297 76 220 q 109 357 76 334 q 205 380 143 380 q 306 363 243 380 q 419 347 370 347 l 445 347 q 486 354 472 347 q 500 383 500 361 q 370 427 500 419 q 197 451 240 434 q 62 576 108 484 q 29 704 29 643 q 181 1002 29 883 q 522 1114 325 1114 q 694 1097 590 1114 q 862 1051 798 1080 q 995 963 937 1016 q 1079 813 1079 887 q 1040 745 1079 770 q 947 720 1001 720 q 841 741 913 720 q 694 784 769 762 q 663 773 673 777 q 633 743 633 758 q 725 688 633 704 q 930 638 869 665 q 1054 535 1005 606 q 1102 379 1102 463 "},"B":{"x_min":32,"x_max":1238.953125,"ha":1267,"o":"m 1238 332 q 1026 79 1238 168 q 579 3 844 3 q 340 21 429 3 q 126 140 183 52 q 61 301 84 205 q 32 601 32 423 q 43 799 32 727 q 152 1035 69 972 q 308 1084 183 1059 q 598 1115 458 1115 q 809 1099 705 1115 q 1090 1015 982 1074 q 1232 812 1232 937 q 1165 663 1232 730 q 1098 577 1098 597 q 1193 469 1152 533 q 1238 332 1238 398 m 708 776 q 678 806 708 791 q 627 821 649 821 q 565 798 599 821 q 536 776 554 791 q 560 744 536 758 q 622 725 595 725 q 685 743 663 725 q 708 776 708 762 m 714 379 q 672 411 714 399 q 630 420 658 415 q 574 406 598 420 q 550 370 550 393 q 573 336 550 346 q 627 326 597 326 q 688 339 663 326 q 714 379 714 352 "},"?":{"x_min":29.5625,"x_max":1060.109375,"ha":1089,"o":"m 1060 746 q 1007 601 1060 671 q 786 461 935 506 q 579 361 707 438 q 407 302 479 302 q 312 350 354 302 q 276 428 276 393 q 324 538 276 476 q 453 672 360 583 l 453 686 q 415 700 439 700 q 337 690 375 695 q 267 685 299 685 q 29 826 29 685 q 176 1004 29 929 q 600 1088 340 1088 q 900 997 758 1088 q 1060 746 1060 896 m 629 128 q 575 29 629 59 q 461 4 532 4 q 346 37 396 4 q 296 126 296 70 q 342 208 296 168 q 461 255 394 255 q 579 220 529 255 q 629 128 629 186 "},"H":{"x_min":26.390625,"x_max":1288.890625,"ha":1322,"o":"m 1288 549 q 1233 187 1288 323 q 991 4 1158 4 q 854 51 922 4 q 777 126 804 85 q 713 258 734 187 q 665 348 686 348 q 616 297 627 348 q 559 137 595 199 q 476 49 531 88 q 344 4 411 4 q 111 160 197 4 q 26 603 26 317 q 86 934 26 798 q 315 1108 162 1108 q 451 1067 387 1108 q 540 981 504 1034 q 608 828 587 913 q 662 785 618 785 q 711 887 683 785 q 761 994 729 952 q 840 1066 793 1035 q 959 1108 902 1108 q 1220 923 1136 1108 q 1288 549 1288 776 "},"c":{"x_min":29.5625,"x_max":1179.5625,"ha":1211,"o":"m 1179 321 q 1030 94 1179 191 q 664 -3 882 -3 q 422 42 547 -3 q 155 224 255 103 q 29 608 29 377 q 85 803 29 699 q 276 1008 153 930 q 640 1104 429 1104 q 865 1076 751 1104 q 1029 1009 962 1052 q 1121 920 1072 981 q 1179 795 1179 847 q 1124 677 1179 727 q 960 622 1062 622 q 855 640 912 622 q 683 683 721 683 q 591 646 633 683 q 549 567 549 610 q 593 480 549 517 q 715 444 637 444 q 821 463 767 444 q 982 508 946 508 q 1128 444 1069 508 q 1179 321 1179 387 "},"&":{"x_min":29,"x_max":1059.546875,"ha":1094,"o":"m 1059 183 q 1022 76 1059 129 q 879 4 970 4 q 733 54 791 4 q 663 104 674 104 q 548 29 617 62 q 405 -3 479 -3 q 131 134 241 -3 q 29 434 29 263 q 65 583 29 515 q 219 736 112 672 l 219 871 q 274 1011 219 937 q 469 1110 348 1110 q 652 1026 563 1110 q 765 747 765 921 q 815 749 795 747 q 849 754 834 751 q 946 710 906 754 q 985 605 985 666 q 976 527 985 558 q 952 465 963 495 q 1026 327 994 404 q 1059 183 1059 251 m 508 803 q 499 837 503 830 q 476 853 494 844 q 468 825 472 839 q 477 806 468 815 q 492 792 487 797 l 508 803 m 482 391 l 482 443 q 456 470 466 461 q 430 497 442 484 l 408 497 q 397 473 402 484 q 429 409 397 440 q 462 386 438 400 q 470 390 466 388 q 482 391 475 391 "},"I":{"x_min":38.890625,"x_max":656.953125,"ha":689,"o":"m 656 555 q 636 325 656 429 q 547 100 608 183 q 358 -1 473 -1 q 115 157 202 -1 q 38 497 38 296 l 38 675 q 116 964 38 836 q 331 1106 202 1106 q 591 910 505 1106 q 656 555 656 761 "},"G":{"x_min":25,"x_max":1211.109375,"ha":1244,"o":"m 1211 381 q 1086 144 1211 257 q 690 6 933 6 q 448 46 575 6 q 162 219 266 104 q 25 609 25 372 q 69 775 25 680 q 261 998 134 913 q 684 1111 430 1111 q 969 1063 841 1111 q 1150 860 1150 997 q 1084 735 1150 777 q 945 701 1030 701 q 848 712 887 701 q 737 740 751 740 q 595 677 645 740 q 551 542 551 621 q 679 337 551 403 l 697 337 q 651 389 666 370 q 622 474 622 427 q 701 600 622 543 q 904 662 785 662 q 1097 603 1011 662 q 1211 381 1211 526 "},"`":{"x_min":37,"x_max":1398,"ha":1444,"o":"m 1398 72 l 37 72 l 37 1052 l 1398 1052 l 1398 72 m 1379 91 l 1379 1033 l 56 1033 l 56 91 l 1379 91 m 1301 655 q 1208 428 1301 520 q 987 336 1116 336 l 753 336 l 753 513 l 664 513 l 664 336 l 586 336 l 586 513 l 302 513 q 305 432 302 482 q 308 365 308 383 q 288 249 308 284 q 184 169 264 206 l 145 169 l 145 207 q 196 245 186 232 q 213 306 213 266 l 213 953 l 308 953 l 308 640 l 625 953 l 664 953 l 664 571 l 753 571 l 753 953 l 1036 953 q 1235 852 1185 902 q 1301 655 1301 787 m 1191 655 q 1142 829 1191 787 q 967 895 1114 853 l 850 895 l 850 396 l 929 396 q 1032 414 988 402 q 1191 655 1191 455 m 575 581 l 575 785 l 370 581 l 575 581 "},"U":{"x_min":36.109375,"x_max":1340.28125,"ha":1372,"o":"m 1340 555 q 1168 141 1340 282 q 759 0 1022 22 q 697 -4 722 -4 q 633 0 670 -4 q 154 209 294 29 q 36 655 36 361 q 104 954 36 836 q 319 1086 180 1086 q 504 995 409 1086 q 616 734 616 887 l 616 602 q 635 552 616 581 q 677 523 654 523 q 741 569 730 523 q 758 836 740 716 q 858 1036 776 956 q 1015 1110 936 1110 q 1247 950 1154 1110 q 1340 555 1340 790 "},"F":{"x_min":33.71875,"x_max":1029.5625,"ha":1056,"o":"m 1029 915 q 961 772 1029 845 q 774 686 882 686 l 589 686 l 589 642 q 639 642 614 642 q 690 642 664 642 q 869 590 789 642 q 961 443 961 531 q 865 284 961 330 q 662 251 794 251 q 550 129 629 251 q 350 7 471 7 q 146 101 222 7 q 54 326 82 180 q 33 592 33 437 q 53 826 33 716 q 139 1035 80 985 q 265 1095 187 1080 q 575 1115 361 1115 q 861 1085 757 1115 q 1029 915 1029 1038 "},"r":{"x_min":27.78125,"x_max":1197.21875,"ha":1228,"o":"m 1197 221 q 1127 55 1197 112 q 976 8 1069 8 q 715 126 840 8 q 626 219 647 198 q 513 75 569 147 q 361 21 448 21 q 123 171 211 21 q 27 555 27 334 q 151 1005 27 879 q 500 1114 256 1114 l 694 1114 q 1005 1043 868 1114 q 1175 801 1175 955 q 1125 658 1175 719 q 1013 567 1069 612 q 1138 410 1086 501 q 1197 221 1197 312 m 659 638 q 632 679 659 666 q 568 692 606 692 q 504 676 526 692 q 488 651 488 665 q 515 617 488 630 q 571 604 543 604 q 633 613 608 604 q 659 638 659 623 "},":":{"x_min":38.890625,"x_max":384.71875,"ha":417,"o":"m 368 719 q 325 632 368 666 q 219 598 283 598 q 84 633 130 598 q 38 725 38 668 q 69 798 38 763 q 194 847 112 847 q 305 815 254 847 q 368 719 368 776 m 384 355 q 345 277 384 309 q 219 240 301 240 q 106 270 151 240 q 56 363 56 305 q 115 460 56 424 q 216 491 163 491 q 336 441 281 491 q 384 355 384 395 "},"x":{"x_min":29.171875,"x_max":1280.5625,"ha":1317,"o":"m 1280 197 q 1218 46 1280 97 q 1065 -1 1161 -1 q 861 50 955 -1 q 680 164 770 107 q 508 51 598 98 q 313 -1 409 -1 q 143 59 202 -1 q 84 216 84 119 q 163 425 84 332 q 243 543 243 518 q 184 597 243 552 q 97 691 141 630 q 50 789 70 727 q 29 891 29 851 q 105 1052 29 986 q 245 1111 172 1111 q 444 1051 352 1111 q 629 919 536 984 q 829 1053 733 995 q 1016 1117 936 1117 q 1190 1051 1123 1117 q 1258 879 1258 985 q 1209 717 1258 796 q 1102 568 1155 642 q 1223 400 1172 492 q 1280 197 1280 300 "},"V":{"x_min":36.5,"x_max":1260.109375,"ha":1294,"o":"m 1260 796 q 1221 568 1260 687 q 1074 289 1172 421 q 962 153 1004 197 q 828 43 894 79 q 654 -1 747 -1 q 487 44 567 -1 q 221 311 361 118 q 96 544 150 408 q 36 813 36 695 q 95 1019 36 938 q 258 1100 154 1100 q 462 1013 374 1100 q 579 844 526 952 q 637 719 608 781 q 794 997 712 891 q 1010 1110 882 1110 q 1200 1015 1133 1110 q 1260 796 1260 930 "},"h":{"x_min":26.390625,"x_max":1288.890625,"ha":1322,"o":"m 1288 549 q 1233 187 1288 323 q 991 4 1158 4 q 854 51 922 4 q 777 126 804 85 q 713 258 734 187 q 665 348 686 348 q 616 297 627 348 q 559 137 595 199 q 476 49 531 88 q 344 4 411 4 q 111 160 197 4 q 26 603 26 317 q 86 934 26 798 q 315 1108 162 1108 q 451 1067 387 1108 q 540 981 504 1034 q 608 828 587 913 q 662 785 618 785 q 711 887 683 785 q 761 994 729 952 q 840 1066 793 1035 q 959 1108 902 1108 q 1220 923 1136 1108 q 1288 549 1288 776 "},"0":{"x_min":33.328125,"x_max":1065.28125,"ha":1100,"o":"m 1065 532 q 920 130 1065 272 q 559 -3 786 -3 q 358 35 461 -3 q 137 194 219 88 q 33 537 33 329 q 180 936 33 796 q 544 1067 316 1067 q 738 1029 638 1067 q 959 872 877 978 q 1065 532 1065 737 m 639 532 q 615 612 639 575 q 550 650 591 650 q 492 604 518 650 q 467 530 467 558 q 494 448 467 482 q 553 414 522 414 q 615 450 591 414 q 639 532 639 486 "},".":{"x_min":29.5625,"x_max":365.671875,"ha":406,"o":"m 365 124 q 326 44 365 77 q 196 4 279 4 q 80 35 126 4 q 29 132 29 71 q 89 232 29 195 q 193 263 137 263 q 317 211 262 263 q 365 124 365 166 "},"@":{"x_min":41,"x_max":1059,"ha":1111,"o":"m 1059 36 l 41 36 l 41 1081 l 1059 1081 l 1059 36 m 1046 49 l 1046 1067 l 55 1067 l 55 49 l 1046 49 m 963 930 l 516 930 l 516 613 l 788 613 l 788 517 l 516 517 l 516 117 l 136 117 l 136 213 l 422 213 l 422 930 l 123 930 l 123 1019 l 963 1019 l 963 930 "},";":{"x_min":38.890625,"x_max":381.9375,"ha":417,"o":"m 375 454 q 334 369 375 400 q 218 339 294 339 q 101 366 150 339 q 38 469 38 402 q 86 561 38 530 q 206 592 134 592 q 312 565 268 592 q 375 454 375 528 m 381 90 q 350 -43 381 27 q 243 -138 308 -138 q 179 -75 193 -138 q 152 -5 165 -12 q 97 20 105 13 q 48 113 48 56 q 83 190 48 155 q 208 236 127 236 q 336 197 290 236 q 381 90 381 158 "},"f":{"x_min":33.71875,"x_max":1029.5625,"ha":1056,"o":"m 1029 915 q 961 772 1029 845 q 774 686 882 686 l 589 686 l 589 642 q 639 642 614 642 q 690 642 664 642 q 869 590 789 642 q 961 443 961 531 q 865 284 961 330 q 662 251 794 251 q 550 129 629 251 q 350 7 471 7 q 146 101 222 7 q 54 326 82 180 q 33 592 33 437 q 53 826 33 716 q 139 1035 80 985 q 265 1095 187 1080 q 575 1115 361 1115 q 861 1085 757 1115 q 1029 915 1029 1038 "},"i":{"x_min":38.890625,"x_max":656.953125,"ha":689,"o":"m 656 555 q 636 325 656 429 q 547 100 608 183 q 358 -1 473 -1 q 115 157 202 -1 q 38 497 38 296 l 38 675 q 116 964 38 836 q 331 1106 202 1106 q 591 910 505 1106 q 656 555 656 761 "},"A":{"x_min":33.71875,"x_max":1297.609375,"ha":1328,"o":"m 1297 279 q 1239 86 1297 158 q 1080 14 1180 14 q 975 38 1032 14 q 886 97 918 62 q 808 212 842 147 q 768 251 789 251 q 550 234 589 251 q 500 167 532 227 q 389 47 458 91 q 250 4 321 4 q 94 83 154 4 q 33 291 33 163 q 82 530 33 391 q 193 768 125 655 q 285 913 254 872 q 422 1043 347 998 q 635 1100 517 1100 q 880 1025 779 1100 q 1094 784 962 963 q 1228 544 1168 683 q 1297 279 1297 384 m 724 669 q 701 706 724 694 q 646 718 678 718 q 583 691 605 718 q 568 664 576 683 q 598 621 568 636 q 648 610 620 610 q 700 628 676 610 q 724 669 724 646 "},"6":{"x_min":31.9375,"x_max":1038.890625,"ha":1078,"o":"m 1038 366 q 902 107 1038 217 q 555 -3 766 -3 q 188 134 345 -3 q 31 458 31 272 q 113 740 31 584 q 251 924 184 874 q 432 1030 336 988 q 598 1072 529 1072 q 720 1017 666 1072 q 783 858 783 955 q 769 763 783 803 q 741 683 755 723 q 779 660 741 666 q 955 574 888 644 q 1012 497 994 534 q 1038 366 1038 442 m 565 444 q 543 487 565 471 q 491 503 522 503 q 438 483 455 503 q 421 444 421 464 q 443 408 421 421 q 493 396 466 396 q 565 444 565 396 "},"n":{"x_min":29.171875,"x_max":1326.390625,"ha":1356,"o":"m 1326 533 q 1263 190 1326 327 q 1018 14 1183 14 q 884 39 947 14 q 787 98 820 64 q 694 215 725 162 q 640 283 654 283 q 598 193 631 283 q 539 92 577 136 q 441 25 501 48 q 352 7 394 7 q 95 201 183 7 q 29 533 29 348 q 101 911 29 748 q 369 1119 194 1119 q 618 976 501 1119 q 706 856 683 886 q 787 991 738 924 q 994 1126 886 1126 q 1256 908 1166 1126 q 1326 533 1326 740 "},"O":{"x_min":27.78125,"x_max":1270.828125,"ha":1300,"o":"m 1270 522 q 1123 168 1270 312 q 661 3 955 3 q 222 151 405 3 q 27 554 27 309 q 206 945 27 783 q 650 1108 384 1108 q 1054 971 875 1108 q 1270 522 1270 806 m 745 530 q 710 684 745 627 q 635 741 676 741 q 546 656 579 741 q 521 536 521 593 q 559 387 521 445 q 633 336 593 336 q 721 406 690 336 q 745 530 745 462 "},"3":{"x_min":27.78125,"x_max":1001.390625,"ha":1039,"o":"m 1001 308 q 882 88 1001 171 q 556 6 763 6 q 190 67 336 6 q 44 230 44 129 q 119 315 44 274 q 244 347 176 347 l 451 347 q 456 364 456 357 q 319 412 456 379 q 181 533 181 446 q 290 654 181 601 q 434 723 362 689 q 225 745 422 730 q 27 873 27 760 q 145 1015 27 958 q 490 1078 275 1078 q 833 997 695 1078 q 986 750 986 907 q 950 626 986 685 q 870 525 909 575 q 936 462 870 521 q 1001 308 1001 404 "},"]":{"x_min":31.9375,"x_max":372.21875,"ha":400,"o":"m 372 1022 q 338 957 372 990 q 198 907 290 907 q 82 946 133 907 q 31 1044 31 986 q 74 1190 31 1116 q 173 1264 118 1264 q 243 1209 234 1264 q 269 1143 251 1154 q 327 1108 315 1118 q 372 1022 372 1070 "},"m":{"x_min":27.78125,"x_max":1458.328125,"ha":1489,"o":"m 1455 545 q 1452 425 1455 503 q 1450 334 1450 346 q 1365 105 1450 209 q 1183 1 1280 1 q 1077 23 1127 1 q 1004 75 1026 46 q 940 179 968 126 q 895 243 906 243 q 848 176 887 243 q 740 110 809 110 q 652 149 683 110 q 591 231 620 189 q 512 75 551 153 q 354 6 466 6 q 180 84 255 6 q 79 264 112 154 q 37 440 45 374 q 29 591 29 505 l 29 651 q 28 692 29 672 q 27 732 27 713 q 27 754 27 743 q 30 782 30 772 q 126 1018 45 919 q 311 1117 206 1117 q 476 1062 381 1117 q 620 952 555 1017 q 662 903 637 937 q 723 852 701 852 q 801 929 736 852 q 912 1032 847 982 q 997 1085 959 1066 q 1127 1117 1063 1117 q 1388 926 1298 1117 q 1458 597 1458 781 q 1458 563 1458 579 q 1455 545 1455 550 "},"9":{"x_min":26.390625,"x_max":1022.21875,"ha":1050,"o":"m 1022 601 q 995 430 1022 505 q 843 199 954 312 q 666 63 758 113 q 448 4 556 4 q 306 62 352 4 q 268 197 268 112 q 279 287 268 251 q 304 351 291 319 q 223 397 304 355 q 112 474 165 427 q 46 563 66 516 q 26 663 26 609 q 175 959 26 841 q 511 1072 316 1072 q 843 963 695 1072 q 1022 601 1022 831 m 601 617 q 573 653 601 640 q 520 667 546 667 q 459 643 481 667 q 444 618 452 636 q 466 579 444 599 q 519 559 489 559 q 569 575 546 559 q 601 617 601 599 "},"8":{"x_min":33,"x_max":1026.0625,"ha":1061,"o":"m 1026 322 q 909 115 1026 209 q 541 3 770 3 q 213 87 356 3 q 56 322 56 180 q 92 426 56 372 q 167 509 120 468 q 70 600 119 554 q 33 713 33 651 q 170 954 33 852 q 530 1061 314 1061 q 833 983 688 1061 q 1009 737 1009 888 q 975 627 1009 675 q 906 530 941 579 q 989 430 952 486 q 1026 322 1026 375 m 590 766 q 514 822 590 822 q 468 803 492 822 q 444 765 444 784 q 466 728 444 741 q 519 715 489 715 q 566 724 548 715 q 590 766 590 738 m 600 311 q 578 352 600 338 q 529 366 556 366 q 475 346 497 366 q 454 311 454 327 q 530 263 454 263 q 573 265 566 263 q 600 311 600 275 "},"l":{"x_min":26.390625,"x_max":1123.609375,"ha":1150,"o":"m 1123 276 q 1009 80 1123 160 q 761 6 901 6 l 533 6 q 376 28 494 6 q 183 92 223 57 q 90 248 137 132 q 26 598 26 408 q 105 950 26 802 q 340 1114 194 1114 q 526 1026 429 1114 q 641 777 641 922 l 641 607 q 636 565 641 594 q 630 523 630 536 q 658 493 630 493 q 734 514 665 493 q 815 523 768 523 q 1029 451 934 523 q 1123 276 1123 378 "},"p":{"x_min":30,"x_max":1174.4375,"ha":1206,"o":"m 1174 694 q 1053 436 1174 529 q 771 323 959 362 q 726 315 743 318 q 688 313 709 313 q 653 315 661 315 q 634 306 642 315 q 548 98 611 180 q 357 10 478 10 q 110 173 198 10 q 30 568 30 323 q 58 829 30 697 q 135 1011 86 961 q 290 1086 180 1055 q 560 1117 400 1117 q 975 1015 803 1117 q 1174 694 1174 898 m 641 689 l 641 724 q 609 735 627 727 q 571 743 591 743 q 518 726 545 743 q 491 702 491 710 q 497 684 497 691 q 552 671 527 678 q 562 669 556 671 q 598 675 575 669 q 641 689 621 682 "},"4":{"x_min":26.390625,"x_max":1170.828125,"ha":1206,"o":"m 1170 498 q 1091 359 1170 408 q 898 263 994 310 q 805 69 852 123 q 645 1 747 1 q 566 19 608 1 q 454 107 505 45 q 397 230 416 155 q 347 281 386 276 q 115 333 175 303 q 26 474 26 376 q 72 631 26 549 q 247 848 125 724 q 384 973 333 934 q 618 1072 515 1072 q 823 962 736 1072 q 904 792 893 876 q 904 766 904 778 q 909 748 904 753 q 1091 658 1019 717 q 1170 498 1170 592 m 676 589 q 639 628 676 603 q 602 651 628 637 l 571 651 q 497 643 527 651 q 459 611 466 635 q 454 587 454 598 q 484 553 454 562 q 553 545 515 545 q 594 545 584 545 q 646 558 616 545 q 676 589 676 571 "},"R":{"x_min":27.78125,"x_max":1197.21875,"ha":1228,"o":"m 1197 221 q 1127 55 1197 112 q 976 8 1069 8 q 715 126 840 8 q 626 219 647 198 q 513 75 569 147 q 361 21 448 21 q 123 171 211 21 q 27 555 27 334 q 151 1005 27 879 q 500 1114 256 1114 l 694 1114 q 1005 1043 868 1114 q 1175 801 1175 955 q 1125 658 1175 719 q 1013 567 1069 612 q 1138 410 1086 501 q 1197 221 1197 312 m 659 638 q 632 679 659 666 q 568 692 606 692 q 504 676 526 692 q 488 651 488 665 q 515 617 488 630 q 571 604 543 604 q 633 613 608 604 q 659 638 659 623 "},"o":{"x_min":27.78125,"x_max":1270.828125,"ha":1300,"o":"m 1270 522 q 1123 168 1270 312 q 661 3 955 3 q 222 151 405 3 q 27 554 27 309 q 206 945 27 783 q 650 1108 384 1108 q 1054 971 875 1108 q 1270 522 1270 806 m 745 530 q 710 684 745 627 q 635 741 676 741 q 546 656 579 741 q 521 536 521 593 q 559 387 521 445 q 633 336 593 336 q 721 406 690 336 q 745 530 745 462 "},"5":{"x_min":33.328125,"x_max":1004.171875,"ha":1033,"o":"m 1004 333 q 804 73 1004 161 q 463 7 651 7 q 219 51 347 7 q 33 233 33 115 q 79 321 33 276 q 194 383 126 366 q 311 400 243 394 q 379 436 379 406 q 284 473 379 467 q 166 486 188 479 q 88 555 111 504 q 65 688 65 606 q 184 1010 65 928 q 500 1072 273 1072 q 729 1049 625 1072 q 943 884 943 1003 q 797 715 943 751 q 590 680 693 697 l 590 662 q 886 547 737 604 q 1004 333 1004 462 "}}}
